<svg aria-hidden="true" style="position: absolute; width: 0; height: 0; overflow: hidden;" version="1.1" xmlns="http://www.w3.org/2000/svg" xmlns:xlink="http://www.w3.org/1999/xlink">
<defs>
<symbol id="icon-tools" viewBox="0 0 32 32">
<title>tools</title>
<path d="M27.783 7.936c0.959 2.313 0.502 5.074-1.379 6.955-2.071 2.071-5.201 2.395-7.634 1.022l-1.759 1.921 1.255 1.26 0.75-0.75c0.383-0.384 1.005-0.384 1.388 0l6.082 6.144c0.384 0.383 0.384 1.005 0 1.388l-2.776 2.776c-0.383 0.384-1.005 0.384-1.388 0l-6.082-6.144c-0.384-0.383-0.384-1.005 0-1.388l0.685-0.685-1.196-1.199-8.411 9.189c-0.767 0.767-2.010 0.767-2.776 0l-0.694-0.694c-0.767-0.767-0.767-2.010 0-2.776l9.582-8.025-6.364-6.381-2.010-0.001-2.326-3.74 1.872-1.875 3.825 2.341 0.025 1.968 6.438 6.463 1.873-1.568c-1.831-2.496-1.64-6.012 0.616-8.268 1.872-1.872 4.618-2.337 6.925-1.396l-4.124 4.067 3.471 3.471 4.132-4.075zM6.15 25.934c-0.383-0.383-1.004-0.383-1.388 0-0.384 0.384-0.384 1.005 0 1.389 0.384 0.383 1.005 0.383 1.388 0 0.384-0.385 0.384-1.006 0-1.389z"></path>
</symbol>
<symbol id="icon-paint" viewBox="0 0 32 32">
<title>paint</title>
<path d="M26 13h-10v2h-2v-3h12v-6h-1v3c0 0.552-0.448 1-1 1h-18c-0.553 0-1-0.448-1-1v-4c0-0.553 0.447-1 1-1h18c0.552 0 1 0.447 1 1h2v8h-1zM23 5h-16v1h16v-1zM17 26c0 1.104-0.896 2-2 2s-2-0.896-2-2v-10h4v10zM15 24.583c-0.553 0-1 0.448-1 1 0 0.553 0.447 1 1 1 0.552 0 1-0.447 1-1 0-0.552-0.448-1-1-1z"></path>
</symbol>
<symbol id="icon-chat" viewBox="0 0 32 32">
<title>chat</title>
<path d="M25.042 18.672v-12.487c0-1.234-1-2.236-2.236-2.236h-19.571c-1.235-0.001-2.236 1.001-2.236 2.236v12.487c0 1.235 1.001 2.236 2.236 2.236h3.729v5.137l5.704-5.137h10.137c1.237 0 2.237-1.001 2.237-2.236zM28.765 8.858h-2.798c0 0 0 9.972 0 10.909s-1.216 2.142-2.153 2.142-10.945 0.055-10.945 0.055c0 1.235 1.001 1.986 2.236 1.986h4.309l5.622 5.102-0.007-5.102h3.736c1.236 0 2.236-0.751 2.236-1.986v-10.932c0-1.234-1-2.174-2.236-2.174z"></path>
</symbol>
<symbol id="icon-drop" viewBox="0 0 20 20">
<title>drop</title>
<path d="M10.203 0.561c-0.027-0.215-0.38-0.215-0.406 0-0.883 7.107-5.398 8.572-5.398 13.512 0 3.053 2.564 5.527 5.601 5.527s5.6-2.475 5.6-5.527c0-4.94-4.514-6.405-5.397-13.512zM9.35 8.418c-0.059 0.219-0.123 0.444-0.189 0.678-0.401 1.424-0.856 3.039-0.856 4.906 0 1.012-0.598 1.371-1.156 1.371-0.639 0-1.156-0.523-1.156-1.166 0-2.207 1.062-3.649 2-4.92 0.295-0.398 0.572-0.775 0.797-1.15 0.103-0.172 0.38-0.164 0.506 0.006 0.059 0.080 0.079 0.182 0.054 0.275z"></path>
</symbol>
<symbol id="icon-facebook2" viewBox="0 0 32 32">
<title>facebook2</title>
<path d="M29 0h-26c-1.65 0-3 1.35-3 3v26c0 1.65 1.35 3 3 3h13v-14h-4v-4h4v-2c0-3.306 2.694-6 6-6h4v4h-4c-1.1 0-2 0.9-2 2v2h6l-1 4h-5v14h9c1.65 0 3-1.35 3-3v-26c0-1.65-1.35-3-3-3z"></path>
</symbol>
<symbol id="icon-instagram" viewBox="0 0 32 32">
<title>instagram</title>
<path d="M16 2.881c4.275 0 4.781 0.019 6.462 0.094 1.563 0.069 2.406 0.331 2.969 0.55 0.744 0.288 1.281 0.638 1.837 1.194 0.563 0.563 0.906 1.094 1.2 1.838 0.219 0.563 0.481 1.412 0.55 2.969 0.075 1.688 0.094 2.194 0.094 6.463s-0.019 4.781-0.094 6.463c-0.069 1.563-0.331 2.406-0.55 2.969-0.288 0.744-0.637 1.281-1.194 1.837-0.563 0.563-1.094 0.906-1.837 1.2-0.563 0.219-1.413 0.481-2.969 0.55-1.688 0.075-2.194 0.094-6.463 0.094s-4.781-0.019-6.463-0.094c-1.563-0.069-2.406-0.331-2.969-0.55-0.744-0.288-1.281-0.637-1.838-1.194-0.563-0.563-0.906-1.094-1.2-1.837-0.219-0.563-0.481-1.413-0.55-2.969-0.075-1.688-0.094-2.194-0.094-6.463s0.019-4.781 0.094-6.463c0.069-1.563 0.331-2.406 0.55-2.969 0.288-0.744 0.638-1.281 1.194-1.838 0.563-0.563 1.094-0.906 1.838-1.2 0.563-0.219 1.412-0.481 2.969-0.55 1.681-0.075 2.188-0.094 6.463-0.094zM16 0c-4.344 0-4.887 0.019-6.594 0.094-1.7 0.075-2.869 0.35-3.881 0.744-1.056 0.412-1.95 0.956-2.837 1.85-0.894 0.888-1.438 1.781-1.85 2.831-0.394 1.019-0.669 2.181-0.744 3.881-0.075 1.713-0.094 2.256-0.094 6.6s0.019 4.887 0.094 6.594c0.075 1.7 0.35 2.869 0.744 3.881 0.413 1.056 0.956 1.95 1.85 2.837 0.887 0.887 1.781 1.438 2.831 1.844 1.019 0.394 2.181 0.669 3.881 0.744 1.706 0.075 2.25 0.094 6.594 0.094s4.888-0.019 6.594-0.094c1.7-0.075 2.869-0.35 3.881-0.744 1.050-0.406 1.944-0.956 2.831-1.844s1.438-1.781 1.844-2.831c0.394-1.019 0.669-2.181 0.744-3.881 0.075-1.706 0.094-2.25 0.094-6.594s-0.019-4.887-0.094-6.594c-0.075-1.7-0.35-2.869-0.744-3.881-0.394-1.063-0.938-1.956-1.831-2.844-0.887-0.887-1.781-1.438-2.831-1.844-1.019-0.394-2.181-0.669-3.881-0.744-1.712-0.081-2.256-0.1-6.6-0.1v0z"></path>
<path d="M16 7.781c-4.537 0-8.219 3.681-8.219 8.219s3.681 8.219 8.219 8.219 8.219-3.681 8.219-8.219c0-4.537-3.681-8.219-8.219-8.219zM16 21.331c-2.944 0-5.331-2.387-5.331-5.331s2.387-5.331 5.331-5.331c2.944 0 5.331 2.387 5.331 5.331s-2.387 5.331-5.331 5.331z"></path>
<path d="M26.462 7.456c0 1.060-0.859 1.919-1.919 1.919s-1.919-0.859-1.919-1.919c0-1.060 0.859-1.919 1.919-1.919s1.919 0.859 1.919 1.919z"></path>
</symbol>
<symbol id="icon-twitter" viewBox="0 0 32 32">
<title>twitter</title>
<path d="M32 7.075c-1.175 0.525-2.444 0.875-3.769 1.031 1.356-0.813 2.394-2.1 2.887-3.631-1.269 0.75-2.675 1.3-4.169 1.594-1.2-1.275-2.906-2.069-4.794-2.069-3.625 0-6.563 2.938-6.563 6.563 0 0.512 0.056 1.012 0.169 1.494-5.456-0.275-10.294-2.888-13.531-6.862-0.563 0.969-0.887 2.1-0.887 3.3 0 2.275 1.156 4.287 2.919 5.463-1.075-0.031-2.087-0.331-2.975-0.819 0 0.025 0 0.056 0 0.081 0 3.181 2.263 5.838 5.269 6.437-0.55 0.15-1.131 0.231-1.731 0.231-0.425 0-0.831-0.044-1.237-0.119 0.838 2.606 3.263 4.506 6.131 4.563-2.25 1.762-5.075 2.813-8.156 2.813-0.531 0-1.050-0.031-1.569-0.094 2.913 1.869 6.362 2.95 10.069 2.95 12.075 0 18.681-10.006 18.681-18.681 0-0.287-0.006-0.569-0.019-0.85 1.281-0.919 2.394-2.075 3.275-3.394z"></path>
</symbol>
<symbol id="icon-youtube" viewBox="0 0 32 32">
<title>youtube</title>
<path d="M31.681 9.6c0 0-0.313-2.206-1.275-3.175-1.219-1.275-2.581-1.281-3.206-1.356-4.475-0.325-11.194-0.325-11.194-0.325h-0.012c0 0-6.719 0-11.194 0.325-0.625 0.075-1.987 0.081-3.206 1.356-0.963 0.969-1.269 3.175-1.269 3.175s-0.319 2.588-0.319 5.181v2.425c0 2.587 0.319 5.181 0.319 5.181s0.313 2.206 1.269 3.175c1.219 1.275 2.819 1.231 3.531 1.369 2.563 0.244 10.881 0.319 10.881 0.319s6.725-0.012 11.2-0.331c0.625-0.075 1.988-0.081 3.206-1.356 0.962-0.969 1.275-3.175 1.275-3.175s0.319-2.587 0.319-5.181v-2.425c-0.006-2.588-0.325-5.181-0.325-5.181zM12.694 20.15v-8.994l8.644 4.513-8.644 4.481z"></path>
</symbol>
<symbol id="icon-menu" viewBox="0 0 20 20">
<title>menu</title>
<path d="M16.4 9h-12.8c-0.552 0-0.6 0.447-0.6 1s0.048 1 0.6 1h12.8c0.552 0 0.6-0.447 0.6-1s-0.048-1-0.6-1zM16.4 13h-12.8c-0.552 0-0.6 0.447-0.6 1s0.048 1 0.6 1h12.8c0.552 0 0.6-0.447 0.6-1s-0.048-1-0.6-1zM3.6 7h12.8c0.552 0 0.6-0.447 0.6-1s-0.048-1-0.6-1h-12.8c-0.552 0-0.6 0.447-0.6 1s0.048 1 0.6 1z"></path>
</symbol>
</defs>
</svg>
